<svg width="512" height="512" viewBox="0 0 512 512" xmlns="http://www.w3.org/2000/svg" role="img" aria-label="LinksCaptain">
<rect width="512" height="512" fill="#3d7a4a"/>
<g transform="translate(256,256) scale(3.4)" fill="none" stroke="#e7ad4c" stroke-linecap="round">
<circle r="30" stroke-width="5"/>
<circle r="21" stroke-width="2.4"/>
<path d="M8 0 L30 0 M5.66 5.66 L21.2 21.2 M0 8 L0 30 M-5.66 5.66 L-21.2 21.2 M-8 0 L-30 0 M-5.66 -5.66 L-21.2 -21.2 M0 -8 L0 -30 M5.66 -5.66 L21.2 -21.2" stroke-width="3.4"/>
<path d="M30 0 L38 0 M21.2 21.2 L26.9 26.9 M0 30 L0 38 M-21.2 21.2 L-26.9 26.9 M-30 0 L-38 0 M-21.2 -21.2 L-26.9 -26.9 M0 -30 L0 -38 M21.2 -21.2 L26.9 -26.9" stroke-width="4.2"/>
<g fill="#e7ad4c" stroke="none"><circle cx="40" cy="0" r="3"/><circle cx="28.3" cy="28.3" r="3"/><circle cx="0" cy="40" r="3"/><circle cx="-28.3" cy="28.3" r="3"/><circle cx="-40" cy="0" r="3"/><circle cx="-28.3" cy="-28.3" r="3"/><circle cx="0" cy="-40" r="3"/><circle cx="28.3" cy="-28.3" r="3"/></g>
<circle r="8" fill="#e7ad4c" stroke="none"/>
</g>

<defs>
  <radialGradient id="bgm" cx="34%" cy="28%" r="78%">
    <stop offset="0%"   stop-color="#ffffff"/>
    <stop offset="45%"  stop-color="#f6f4ee"/>
    <stop offset="78%"  stop-color="#ddd8cc"/>
    <stop offset="100%" stop-color="#aca697"/>
  </radialGradient>
  <radialGradient id="spm">
    <stop offset="0%"   stop-color="#ffffff" stop-opacity="0.9"/>
    <stop offset="100%" stop-color="#ffffff" stop-opacity="0"/>
  </radialGradient>
  <clipPath id="cpm"><circle cx="350" cy="350" r="66"/></clipPath>
  <filter id="shm" x="-40%" y="-40%" width="180%" height="180%">
    <feGaussianBlur stdDeviation="7.3"/>
  </filter>
</defs>
<circle cx="355.94" cy="358.58" r="65.34" fill="#0f2a19" opacity="0.5" filter="url(#shm)"/>
<circle cx="350" cy="350" r="66" fill="url(#bgm)"/>
<g clip-path="url(#cpm)">
<ellipse cx="322.28" cy="301.99" rx="3.25" ry="5.98" fill="#4a4a44" opacity="0.091" transform="rotate(-120.0 322.28 301.99)"/>
<ellipse cx="340.76" cy="301.99" rx="4.19" ry="6.23" fill="#4a4a44" opacity="0.104" transform="rotate(-100.9 340.76 301.99)"/>
<ellipse cx="359.24" cy="301.99" rx="4.19" ry="6.23" fill="#4a4a44" opacity="0.117" transform="rotate(-79.1 359.24 301.99)"/>
<ellipse cx="377.72" cy="301.99" rx="3.25" ry="5.98" fill="#4a4a44" opacity="0.131" transform="rotate(-60.0 377.72 301.99)"/>
<ellipse cx="313.04" cy="317.99" rx="4.19" ry="6.23" fill="#4a4a44" opacity="0.096" transform="rotate(-139.1 313.04 317.99)"/>
<ellipse cx="331.52" cy="317.99" rx="5.41" ry="6.53" fill="#4a4a44" opacity="0.109" transform="rotate(-120.0 331.52 317.99)"/>
<ellipse cx="350.00" cy="317.99" rx="5.79" ry="6.62" fill="#4a4a44" opacity="0.122" transform="rotate(-90.0 350.00 317.99)"/>
<ellipse cx="368.48" cy="317.99" rx="5.41" ry="6.53" fill="#4a4a44" opacity="0.135" transform="rotate(-60.0 368.48 317.99)"/>
<ellipse cx="386.96" cy="317.99" rx="4.19" ry="6.23" fill="#4a4a44" opacity="0.149" transform="rotate(-40.9 386.96 317.99)"/>
<ellipse cx="303.80" cy="334.00" rx="4.19" ry="6.23" fill="#4a4a44" opacity="0.101" transform="rotate(-160.9 303.80 334.00)"/>
<ellipse cx="322.28" cy="334.00" rx="5.79" ry="6.62" fill="#4a4a44" opacity="0.114" transform="rotate(-150.0 322.28 334.00)"/>
<ellipse cx="340.76" cy="334.00" rx="6.52" ry="6.79" fill="#4a4a44" opacity="0.127" transform="rotate(-120.0 340.76 334.00)"/>
<ellipse cx="359.24" cy="334.00" rx="6.52" ry="6.79" fill="#4a4a44" opacity="0.140" transform="rotate(-60.0 359.24 334.00)"/>
<ellipse cx="377.72" cy="334.00" rx="5.79" ry="6.62" fill="#4a4a44" opacity="0.153" transform="rotate(-30.0 377.72 334.00)"/>
<ellipse cx="396.20" cy="334.00" rx="4.19" ry="6.23" fill="#4a4a44" opacity="0.166" transform="rotate(-19.1 396.20 334.00)"/>
<ellipse cx="294.56" cy="350.00" rx="3.25" ry="5.98" fill="#4a4a44" opacity="0.106" transform="rotate(180.0 294.56 350.00)"/>
<ellipse cx="313.04" cy="350.00" rx="5.41" ry="6.53" fill="#4a4a44" opacity="0.119" transform="rotate(180.0 313.04 350.00)"/>
<ellipse cx="331.52" cy="350.00" rx="6.52" ry="6.79" fill="#4a4a44" opacity="0.132" transform="rotate(180.0 331.52 350.00)"/>
<ellipse cx="350.00" cy="350.00" rx="6.86" ry="6.86" fill="#4a4a44" opacity="0.145" transform="rotate(0.0 350.00 350.00)"/>
<ellipse cx="368.48" cy="350.00" rx="6.52" ry="6.79" fill="#4a4a44" opacity="0.158" transform="rotate(0.0 368.48 350.00)"/>
<ellipse cx="386.96" cy="350.00" rx="5.41" ry="6.53" fill="#4a4a44" opacity="0.171" transform="rotate(0.0 386.96 350.00)"/>
<ellipse cx="405.44" cy="350.00" rx="3.25" ry="5.98" fill="#4a4a44" opacity="0.184" transform="rotate(0.0 405.44 350.00)"/>
<ellipse cx="303.80" cy="366.00" rx="4.19" ry="6.23" fill="#4a4a44" opacity="0.124" transform="rotate(160.9 303.80 366.00)"/>
<ellipse cx="322.28" cy="366.00" rx="5.79" ry="6.62" fill="#4a4a44" opacity="0.137" transform="rotate(150.0 322.28 366.00)"/>
<ellipse cx="340.76" cy="366.00" rx="6.52" ry="6.79" fill="#4a4a44" opacity="0.150" transform="rotate(120.0 340.76 366.00)"/>
<ellipse cx="359.24" cy="366.00" rx="6.52" ry="6.79" fill="#4a4a44" opacity="0.163" transform="rotate(60.0 359.24 366.00)"/>
<ellipse cx="377.72" cy="366.00" rx="5.79" ry="6.62" fill="#4a4a44" opacity="0.176" transform="rotate(30.0 377.72 366.00)"/>
<ellipse cx="396.20" cy="366.00" rx="4.19" ry="6.23" fill="#4a4a44" opacity="0.189" transform="rotate(19.1 396.20 366.00)"/>
<ellipse cx="313.04" cy="382.01" rx="4.19" ry="6.23" fill="#4a4a44" opacity="0.141" transform="rotate(139.1 313.04 382.01)"/>
<ellipse cx="331.52" cy="382.01" rx="5.41" ry="6.53" fill="#4a4a44" opacity="0.155" transform="rotate(120.0 331.52 382.01)"/>
<ellipse cx="350.00" cy="382.01" rx="5.79" ry="6.62" fill="#4a4a44" opacity="0.168" transform="rotate(90.0 350.00 382.01)"/>
<ellipse cx="368.48" cy="382.01" rx="5.41" ry="6.53" fill="#4a4a44" opacity="0.181" transform="rotate(60.0 368.48 382.01)"/>
<ellipse cx="386.96" cy="382.01" rx="4.19" ry="6.23" fill="#4a4a44" opacity="0.194" transform="rotate(40.9 386.96 382.01)"/>
<ellipse cx="322.28" cy="398.01" rx="3.25" ry="5.98" fill="#4a4a44" opacity="0.159" transform="rotate(120.0 322.28 398.01)"/>
<ellipse cx="340.76" cy="398.01" rx="4.19" ry="6.23" fill="#4a4a44" opacity="0.173" transform="rotate(100.9 340.76 398.01)"/>
<ellipse cx="359.24" cy="398.01" rx="4.19" ry="6.23" fill="#4a4a44" opacity="0.186" transform="rotate(79.1 359.24 398.01)"/>
<ellipse cx="377.72" cy="398.01" rx="3.25" ry="5.98" fill="#4a4a44" opacity="0.199" transform="rotate(60.0 377.72 398.01)"/>
</g>
<ellipse cx="327.56" cy="324.92" rx="21.12" ry="16.5" fill="url(#spm)" transform="rotate(-25 327.56 324.92)"/>
<circle cx="350" cy="350" r="66" fill="none" stroke="#8f8a7c" stroke-width="1.32" opacity="0.5"/>
</svg>